<svg fill="currentColor" xmlns="http://www.w3.org/2000/svg" viewBox="0 0 24 24" width="24" height="24" data-testid="activity_icon"><path d="M5.5 19.675a5.166 5.166 0 0 0 5.105-4.485h1.105l3.28-6.52.76 1.46a5.044 5.044 0 1 0 1.22-.57l-2.03-3.89H17a.333.333 0 0 1 .33.33v.57h1.34V6A1.674 1.674 0 0 0 17 4.32h-4.29l1.57 3.01H8.542L7.66 5.67h1.45l-.72-1.35H4.17l.72 1.35h1.241l1.26 2.37v.01l-.76 1.41a5.2 5.2 0 0 0-1.13-.135 5.175 5.175 0 1 0 0 10.35zm12.79-4.695h1.52l-2.2-4.2q.438-.11.89-.11a3.83 3.83 0 1 1-3.83 3.83 3.88 3.88 0 0 1 1.7-3.19zm-4.82-6.31-2.046 4.082-2.17-4.082zm-5.32.8 2.323 4.371H5.8l2.35-4.37zM5.5 10.675q.227.008.451.041l-1.58 2.944.79 1.53h4.1a3.822 3.822 0 1 1-3.76-4.515z"/></svg>
