<svg fill="currentColor" xmlns="http://www.w3.org/2000/svg" viewBox="0 0 24 24" width="24" height="24" class="------packages-feed-ui-src-features-Activity-Activity__activity-icon--lq3sA"><path d="M21.3 18.12 14.98 6.28a2.6 2.6 0 0 0-4.63.07l-.46.93a.59.59 0 0 1-.21-.45V3.17A2.45 2.45 0 0 0 7.24.72a2.17 2.17 0 0 0-2.01 1.4L2.91 6.84 1.39 7.96a2.77 2.77 0 0 0-1.06 2.06 2.96 2.96 0 0 0 .9 2.32l7.76 7.9a11.62 11.62 0 0 0 8.22 3.43h3.65a2.76 2.76 0 0 0 2.41-1.4l.05-.09a2.7 2.7 0 0 0-.01-2.73 2.67 2.67 0 0 0-2.01-1.33m.85 3.39-.05.09a1.43 1.43 0 0 1-1.24.73h-3.65a10.26 10.26 0 0 1-7.26-3.04l-7.78-7.92a1.57 1.57 0 0 1-.49-1.27 1.43 1.43 0 0 1 .5-1.05l.71-.53 8.6 8.48h1.64v-.28L3.98 7.7l2.48-5.02a.85.85 0 0 1 .78-.61 1.1 1.1 0 0 1 1.09 1.1v3.66a1.92 1.92 0 0 0 1.92 1.92h.43l.88-1.8a1.24 1.24 0 0 1 1.12-.7 1.26 1.26 0 0 1 1.11.67l1.04 1.94L12.69 10v1.52l2.77-1.47.77 1.42v.01l-2.63 1.39v1.53l3.26-1.73.74 1.37-3.02 1.6v1.53l3.65-1.94 2.06 3.85.25.36h.4a1.38 1.38 0 0 1 1.2.69 1.34 1.34 0 0 1 .01 1.38"/></svg>
