<?xml version="1.0" standalone="no"?>
<!DOCTYPE svg PUBLIC "-//W3C//DTD SVG 20010904//EN"
 "http://www.w3.org/TR/2001/REC-SVG-20010904/DTD/svg10.dtd">
<svg version="1.0" xmlns="http://www.w3.org/2000/svg"
 width="700.000000pt" height="700.000000pt" viewBox="0 0 700.000000 700.000000"
 preserveAspectRatio="xMidYMid meet">
<metadata>
Created by potrace 1.14, written by Peter Selinger 2001-2017
</metadata>
<g transform="translate(0.000000,700.000000) scale(0.100000,-0.100000)"
fill="#000000" stroke="none">
<path d="M5477 5824 c-25 -6 -66 -23 -89 -37 -24 -15 -288 -272 -587 -572
-300 -300 -550 -545 -555 -546 -6 0 -650 -1 -1431 -2 l-1420 -2 -55 -26 c-67
-32 -115 -78 -143 -139 -31 -65 -31 -197 1 -257 30 -57 76 -100 142 -131 l55
-27 1127 -1 c620 0 1130 -3 1133 -5 3 -4 -1104 -1119 -1150 -1158 -3 -2 -254
-5 -557 -5 l-553 -1 -55 -27 c-65 -31 -100 -63 -134 -121 -84 -146 -27 -324
129 -405 l50 -26 262 0 c145 -1 263 -4 263 -7 0 -3 -155 -160 -345 -350 -291
-291 -348 -353 -369 -400 -89 -197 51 -411 268 -410 121 0 120 0 731 611 302
302 556 550 565 551 8 0 652 2 1430 3 1524 2 1446 0 1520 55 50 36 68 59 97
120 22 47 25 63 21 130 -7 120 -60 199 -168 250 l-55 26 -1132 0 c-623 0
-1133 2 -1133 5 0 3 261 266 579 585 l579 579 554 0 553 1 55 26 c86 41 148
115 165 195 29 141 -36 272 -165 333 -55 26 -56 26 -317 26 -144 0 -261 1
-260 2 1 1 160 161 353 355 223 225 357 367 368 392 55 119 25 262 -71 347
-68 59 -171 85 -256 63z"/>
</g>
</svg>
